<svg width="28" height="28" viewBox="0 0 28 28" fill="none" xmlns="http://www.w3.org/2000/svg">
<path fill-rule="evenodd" clip-rule="evenodd" d="M8.62175 0.897203C10.0426 0.831796 10.4956 0.817261 14.1148 0.817261C17.734 0.817261 18.187 0.833007 19.6066 0.897203C21.0262 0.9614 21.9952 1.1879 22.843 1.51615C23.7309 1.85167 24.5364 2.37614 25.2026 3.05444C25.8809 3.71942 26.4041 4.52369 26.7384 5.41275C27.0679 6.26062 27.2932 7.22962 27.3586 8.64679C27.424 10.07 27.4385 10.523 27.4385 14.141C27.4385 17.7602 27.4228 18.2132 27.3586 19.634C27.2944 21.0512 27.0679 22.0202 26.7384 22.8681C26.4041 23.7573 25.88 24.5629 25.2026 25.2288C24.5364 25.9071 23.7309 26.4304 22.843 26.7647C21.9952 27.0941 21.0262 27.3194 19.609 27.3848C18.187 27.4502 17.734 27.4648 14.1148 27.4648C10.4956 27.4648 10.0426 27.449 8.62175 27.3848C7.20459 27.3206 6.23559 27.0941 5.38771 26.7647C4.49856 26.4303 3.69296 25.9062 3.02698 25.2288C2.34914 24.5634 1.82459 23.7582 1.48991 22.8693C1.16166 22.0214 0.936366 21.0524 0.870958 19.6353C0.805551 18.212 0.791016 17.759 0.791016 14.141C0.791016 10.5218 0.806762 10.0688 0.870958 8.64921C0.935154 7.22962 1.16166 6.26062 1.48991 5.41275C1.82509 4.52379 2.35004 3.71859 3.0282 3.05323C3.69322 2.37554 4.49802 1.85099 5.3865 1.51615C6.23438 1.1879 7.20338 0.962611 8.62054 0.897203H8.62175ZM19.4988 3.29548C18.0937 3.23128 17.6722 3.21796 14.1148 3.21796C10.5573 3.21796 10.1358 3.23128 8.73077 3.29548C7.43109 3.35483 6.72615 3.57165 6.25618 3.75454C5.63481 3.99679 5.19028 4.28386 4.72395 4.75019C4.2819 5.18025 3.9417 5.70379 3.7283 6.28242C3.5454 6.75239 3.32859 7.45734 3.26923 8.75701C3.20504 10.1621 3.19172 10.5836 3.19172 14.141C3.19172 17.6985 3.20504 18.12 3.26923 19.525C3.32859 20.8247 3.5454 21.5297 3.7283 21.9996C3.94148 22.5774 4.28184 23.1019 4.72395 23.5318C5.15394 23.974 5.67841 24.3143 6.25618 24.5275C6.72615 24.7104 7.43109 24.9272 8.73077 24.9866C10.1358 25.0508 10.5561 25.0641 14.1148 25.0641C17.6734 25.0641 18.0937 25.0508 19.4988 24.9866C20.7985 24.9272 21.5034 24.7104 21.9734 24.5275C22.5947 24.2852 23.0393 23.9982 23.5056 23.5318C23.9477 23.1019 24.2881 22.5774 24.5013 21.9996C24.6842 21.5297 24.901 20.8247 24.9603 19.525C25.0245 18.12 25.0378 17.6985 25.0378 14.141C25.0378 10.5836 25.0245 10.1621 24.9603 8.75701C24.901 7.45734 24.6842 6.75239 24.5013 6.28242C24.259 5.66105 23.9719 5.21652 23.5056 4.75019C23.0755 4.30817 22.552 3.96798 21.9734 3.75454C21.5034 3.57165 20.7985 3.35483 19.4988 3.29548V3.29548ZM12.413 18.2484C13.3634 18.644 14.4217 18.6974 15.4071 18.3994C16.3925 18.1015 17.2439 17.4706 17.8159 16.6147C18.3879 15.7587 18.6449 14.7307 18.5432 13.7063C18.4414 12.6819 17.9872 11.7245 17.258 10.9978C16.7931 10.5333 16.2311 10.1776 15.6123 9.95633C14.9935 9.73507 14.3333 9.65377 13.6793 9.71828C13.0253 9.78278 12.3938 9.99149 11.8301 10.3294C11.2665 10.6673 10.7847 11.1259 10.4196 11.6723C10.0545 12.2187 9.81506 12.8393 9.71856 13.4893C9.62206 14.1394 9.67088 14.8027 9.86152 15.4316C10.0522 16.0605 10.3799 16.6394 10.821 17.1264C11.2622 17.6135 11.8059 17.9967 12.413 18.2484ZM9.27219 9.29844C9.90813 8.6625 10.6631 8.15805 11.494 7.81388C12.3249 7.46972 13.2154 7.29258 14.1148 7.29258C15.0141 7.29258 15.9047 7.46972 16.7356 7.81388C17.5665 8.15805 18.3214 8.6625 18.9574 9.29844C19.5933 9.93438 20.0977 10.6893 20.4419 11.5202C20.7861 12.3511 20.9632 13.2417 20.9632 14.141C20.9632 15.0404 20.7861 15.9309 20.4419 16.7618C20.0977 17.5927 19.5933 18.3477 18.9574 18.9836C17.673 20.2679 15.9311 20.9895 14.1148 20.9895C12.2985 20.9895 10.5565 20.2679 9.27219 18.9836C7.98786 17.6993 7.26633 15.9573 7.26633 14.141C7.26633 12.3247 7.98786 10.5828 9.27219 9.29844V9.29844ZM22.4821 8.31248C22.6397 8.16382 22.7658 7.98506 22.8531 7.78677C22.9404 7.58848 22.987 7.37469 22.9901 7.15807C22.9933 6.94146 22.9529 6.72641 22.8715 6.52566C22.79 6.32491 22.6692 6.14254 22.516 5.98935C22.3628 5.83616 22.1804 5.71527 21.9797 5.63382C21.7789 5.55238 21.5639 5.51204 21.3472 5.5152C21.1306 5.51836 20.9168 5.56495 20.7185 5.65221C20.5203 5.73947 20.3415 5.86563 20.1928 6.02322C19.9037 6.3297 19.7454 6.73679 19.7516 7.15807C19.7577 7.57936 19.9278 7.98166 20.2257 8.27959C20.5236 8.57751 20.926 8.7476 21.3472 8.75374C21.7685 8.75988 22.1756 8.60159 22.4821 8.31248V8.31248Z" fill="black"/>
</svg>
