<svg width="170" height="67" viewBox="0 0 170 67" fill="none" xmlns="http://www.w3.org/2000/svg">
<path d="M3.72018 66.5178C4.62303 66.5178 5.3473 66.2599 5.84337 65.7737C6.34937 65.2777 6.6867 64.4839 6.69662 63.7795H5.81361C5.72432 64.8213 5.08934 65.734 3.74994 65.734C2.27164 65.734 1.30926 64.5633 1.30926 62.8271C1.30926 61.1602 2.18235 59.9002 3.74002 59.9002C4.86115 59.9002 5.56557 60.5054 5.73424 61.3884H6.60733C6.41882 60.0788 5.41675 59.1263 3.75986 59.1263C1.64659 59.1263 0.396484 60.7435 0.396484 62.8271C0.396484 64.98 1.70612 66.5178 3.72018 66.5178Z" fill="white"/>
<path d="M13.3835 66.5278C15.5266 66.5278 16.8561 64.9502 16.8561 62.8271C16.8561 60.7039 15.5266 59.1263 13.3835 59.1263C11.2405 59.1263 9.91102 60.7039 9.91102 62.8271C9.91102 64.9502 11.2405 66.5278 13.3835 66.5278ZM13.3835 65.744C11.7167 65.744 10.8238 64.4939 10.8238 62.8271C10.8238 61.1602 11.7167 59.9002 13.3835 59.9002C15.0503 59.9002 15.9433 61.1602 15.9433 62.8271C15.9433 64.4939 15.0503 65.744 13.3835 65.744Z" fill="white"/>
<path d="M20.4007 66.3789H21.2341V60.555H21.254C21.254 60.555 21.5516 61.0908 21.7798 61.438L25.0341 66.3789H25.9468V59.2851H25.1134V65.1288H25.0936C25.0936 65.1288 24.8158 64.5832 24.5777 64.2161L21.3433 59.2851H20.4007V66.3789Z" fill="white"/>
<path d="M29.7603 66.3789H30.6532V63.0354H33.9173V62.2814H30.6532V60.0689H34.5722V59.2851H29.7603V66.3789Z" fill="white"/>
<path d="M37.9963 66.3789H38.8892V59.2851H37.9963V66.3789Z" fill="white"/>
<path d="M42.7144 66.3789H45.2245C47.3576 66.3789 48.4391 64.98 48.4391 62.8568C48.4391 60.7336 47.4271 59.2851 45.2939 59.2851H42.7144V66.3789ZM43.6073 65.5951V60.059H45.2642C46.931 60.059 47.5263 61.19 47.5263 62.8568C47.5263 64.5236 46.8615 65.5951 45.1947 65.5951H43.6073Z" fill="white"/>
<path d="M51.977 66.3789H57.1064V65.5555H52.8699V63.0652H56.6103V62.3111H52.8699V60.0689H56.9873V59.2851H51.977V66.3789Z" fill="white"/>
<path d="M60.6292 66.3789H61.4626V60.555H61.4825C61.4825 60.555 61.7801 61.0908 62.0083 61.438L65.2625 66.3789H66.1753V59.2851H65.3419V65.1288H65.3221C65.3221 65.1288 65.0443 64.5832 64.8062 64.2161L61.5717 59.2851H60.6292V66.3789Z" fill="white"/>
<path d="M73.0445 66.5178C73.9474 66.5178 74.6717 66.2599 75.1677 65.7737C75.6737 65.2777 76.0111 64.4839 76.021 63.7795H75.138C75.0487 64.8213 74.4137 65.734 73.0743 65.734C71.596 65.734 70.6336 64.5633 70.6336 62.8271C70.6336 61.1602 71.5067 59.9002 73.0644 59.9002C74.1855 59.9002 74.8899 60.5054 75.0586 61.3884H75.9317C75.7432 60.0788 74.7411 59.1263 73.0842 59.1263C70.9709 59.1263 69.7208 60.7435 69.7208 62.8271C69.7208 64.98 71.0305 66.5178 73.0445 66.5178Z" fill="white"/>
<path d="M79.5033 66.3789H84.6327V65.5555H80.3962V63.0652H84.1366V62.3111H80.3962V60.0689H84.5136V59.2851H79.5033V66.3789Z" fill="white"/>
<path d="M91.7687 60.0689H94.13V66.3789H95.0229V60.0689H97.3842V59.2851H91.7687V60.0689Z" fill="white"/>
<path d="M100.751 66.3789H101.644V63.0255H105.434V66.3789H106.327V59.2851H105.434V62.3012H101.644V59.2851H100.751V66.3789Z" fill="white"/>
<path d="M109.574 66.3789H110.487L111.251 64.2161H114.079L114.833 66.3789H115.805L113.186 59.2851H112.184L109.574 66.3789ZM112.352 61.1106C112.491 60.7039 112.68 60.1086 112.68 60.1086H112.699C112.699 60.1086 112.878 60.7138 113.017 61.1106L113.83 63.4918H111.509L112.352 61.1106Z" fill="white"/>
<path d="M117.716 60.0689H120.077V66.3789H120.97V60.0689H123.331V59.2851H117.716V60.0689Z" fill="white"/>
<path d="M130.758 66.3789H135.371V65.5555H131.651V59.2851H130.758V66.3789Z" fill="white"/>
<path d="M138.166 66.3789H139.079L139.843 64.2161H142.671L143.425 66.3789H144.397L141.778 59.2851H140.776L138.166 66.3789ZM140.944 61.1106C141.083 60.7039 141.272 60.1086 141.272 60.1086H141.291C141.291 60.1086 141.47 60.7138 141.609 61.1106L142.423 63.4918H140.101L140.944 61.1106Z" fill="white"/>
<path d="M150.128 66.5178C151.656 66.5178 152.738 65.7737 152.738 64.4443C152.738 62.8469 151.478 62.5096 150.098 62.2318C149.037 62.0234 148.243 61.7853 148.243 60.9817C148.243 60.2475 148.878 59.8407 149.841 59.8407C150.882 59.8407 151.537 60.3467 151.666 61.3587H152.509C152.331 60.049 151.597 59.1462 149.821 59.1462C148.382 59.1462 147.41 59.8506 147.41 61.0213C147.41 62.3607 148.481 62.7179 149.731 62.9957C151.001 63.2735 151.855 63.5017 151.855 64.474C151.855 65.357 151.15 65.8035 150.168 65.8035C148.829 65.8035 148.094 65.1784 147.975 63.9779H147.102C147.182 65.4066 148.134 66.5178 150.128 66.5178Z" fill="white"/>
<path d="M155.444 60.0689H157.806V66.3789H158.699V60.0689H161.06V59.2851H155.444V60.0689Z" fill="white"/>
<path d="M166.861 66.5178C168.389 66.5178 169.47 65.7737 169.47 64.4443C169.47 62.8469 168.21 62.5096 166.831 62.2318C165.77 62.0234 164.976 61.7853 164.976 60.9817C164.976 60.2475 165.611 59.8407 166.573 59.8407C167.615 59.8407 168.27 60.3467 168.399 61.3587H169.242C169.064 60.049 168.329 59.1462 166.553 59.1462C165.115 59.1462 164.143 59.8506 164.143 61.0213C164.143 62.3607 165.214 62.7179 166.464 62.9957C167.734 63.2735 168.587 63.5017 168.587 64.474C168.587 65.357 167.883 65.8035 166.901 65.8035C165.561 65.8035 164.827 65.1784 164.708 63.9779H163.835C163.914 65.4066 164.867 66.5178 166.861 66.5178Z" fill="white"/>
<path d="M51 0.498046C52.0403 0.622558 53.9127 0.705565 53.9127 1.82617V30.2562C53.9127 31.3768 52.0403 31.4599 51 31.5844V32.0824H61.0281V31.5844C60.0295 31.4599 58.1154 31.3768 58.1154 30.2562V15.4809H63.4831C64.8563 15.4809 64.9395 17.7636 65.0643 19.9633H65.5637V10.4589H65.0643C64.9395 12.6586 64.8563 14.9414 63.4831 14.9414H58.1154V1.82617C58.1154 0.705565 59.9879 0.498046 61.0281 0.498046H66.063C69.267 0.498046 71.3059 3.02977 72.5126 5.85203L72.9703 5.81053L71.514 1.70165C71.0978 0.498046 70.6817 0 69.2254 0H51V0.498046Z" fill="white"/>
<path d="M73.6115 47.9368C77.7726 47.9368 79.9363 41.7943 82.8074 34.8632L92.6275 10.957C93.0852 9.79489 94.5 9.79489 95.5818 9.67038V9.25534H89.5483V9.67038C90.2141 9.75338 92.5027 9.75338 92.0033 10.957L82.1833 34.8632C79.8947 40.1341 77.3148 47.2313 73.6115 47.2313C71.7807 47.2313 70.3659 44.9071 71.9055 40.5907C73.4451 34.8632 81.8504 32.622 83.1403 28.6791C83.8477 26.4379 83.0571 22.9516 81.0598 19.7143C79.2705 16.8505 77.5645 13.9038 75.8585 10.9985C75.1095 9.75338 77.7309 9.75338 78.3551 9.67038V9.25534H68.4102V9.67038C69.6169 9.79489 70.6988 9.9609 71.4478 11.123C73.237 13.8623 74.3189 15.5639 76.1081 18.4277C78.4383 22.1215 82.1 25.4833 82.4745 27.766C83.3067 32.5805 70.5739 32.3314 67.8693 39.8021C65.7887 45.4881 70.3659 47.9368 73.6115 47.9368Z" fill="white"/>
<path d="M102.78 32.0824V31.6674C101.657 31.5429 100.076 31.3768 100.076 30.3392V0H93.5845V0.41504C94.6248 0.539549 96.2892 0.705565 96.2892 1.70165V30.3392C96.2892 31.3768 94.6248 31.5429 93.5845 31.6674V32.0824H102.78Z" fill="white"/>
<path d="M111.286 32.0824V31.6674C110.163 31.5429 108.582 31.3768 108.582 30.3392V0H102.09V0.41504C103.131 0.539549 104.795 0.705565 104.795 1.70165V30.3392C104.795 31.3768 103.131 31.5429 102.09 31.6674V32.0824H111.286Z" fill="white"/>
<path d="M115.34 5.39549C116.713 5.39549 117.836 4.31639 117.836 2.90527C117.836 1.53564 116.713 0.41504 115.34 0.41504C113.966 0.41504 112.843 1.53564 112.843 2.90527C112.843 4.31639 113.966 5.39549 115.34 5.39549ZM110.804 9.25534V9.67038C111.844 9.79489 113.509 9.9194 113.509 10.957V30.3808C113.509 31.4599 111.844 31.5429 110.804 31.6674V32.0824H120V31.6674C119.126 31.5429 117.295 31.4599 117.295 30.3808V9.25534H110.804Z" fill="white"/>
</svg>
